<svg width="164" height="45" viewBox="0 0 164 45" fill="none" xmlns="http://www.w3.org/2000/svg">
<g clip-path="url(#clip0)">
<path fill-rule="evenodd" clip-rule="evenodd" d="M131.635 43.1533L162.418 43.1533L131.635 2.51987L2.14519 2.51987V43.1533L131.635 43.1533Z" stroke="#00A2FF" stroke-width="2.782" stroke-miterlimit="1"/>
<path d="M25.5352 14.5283V18.9613C24.2399 19.0477 23.2324 19.2492 22.4551 19.5658C21.7067 19.8825 21.1022 20.4582 20.6992 21.2354C20.2674 22.0126 20.0659 23.1353 20.0659 24.6034V26.0714H23.0021V29.4682H12.6391V26.0714H15.345V18.1553H12.783V14.701H19.6629V18.4432C20.0083 17.3205 20.6416 16.3706 21.5915 15.6222C22.5415 14.8737 23.6929 14.4995 25.0747 14.4995C25.2762 14.4995 25.4489 14.4995 25.5352 14.5283Z" fill="#00A2FF"/>
<path d="M44.6149 23.0772H33.5898C33.705 24.1999 34.108 25.0922 34.7701 25.7543C35.4321 26.4164 36.2957 26.7618 37.3608 26.7618C38.541 26.7618 39.6637 26.1861 40.7864 25.0059L44.4422 26.1861C43.6362 27.3951 42.6574 28.3162 41.4484 28.9207C40.2682 29.5252 38.8577 29.8131 37.2169 29.8131C35.6049 29.8131 34.1655 29.5252 32.899 28.892C31.6612 28.2875 30.6824 27.4239 29.9916 26.3012C29.3007 25.1786 28.9553 23.8544 28.9553 22.3288C28.9553 20.8319 29.3295 19.479 30.0203 18.2412C30.74 17.0322 31.7187 16.0822 32.9565 15.3914C34.1655 14.7005 35.4897 14.3551 36.929 14.3551C38.4835 14.3551 39.8364 14.7293 40.9879 15.4201C42.1393 16.1398 43.0317 17.1761 43.665 18.4715C44.2695 19.7956 44.5861 21.3213 44.6149 23.0772ZM36.6987 17.4927C35.8639 17.4927 35.1731 17.723 34.6837 18.2124C34.1655 18.7017 33.8489 19.4502 33.705 20.4577H39.8652C39.7213 19.5653 39.3758 18.8745 38.8001 18.3275C38.1956 17.7806 37.5047 17.4927 36.6987 17.4927Z" fill="#00A2FF"/>
<path d="M53.3442 18.1531L55.1281 23.62L58.178 14.7004H62.0624L64.9972 23.62L66.8099 18.1531H65.1123V14.7004H72.2481V18.1531H70.4353L66.5798 29.691H62.494L59.6167 21.0016L56.7682 29.691H52.6824L48.798 18.1531H46.899V14.7004H54.9555V18.1531H53.3442Z" fill="#00A2FF"/>
<path d="M89.0063 20.6016V26.0709H91.3956V29.4677H84.3142V28.3162C82.9612 29.2374 81.6371 29.698 80.2841 29.698C78.6721 29.698 77.3767 29.2662 76.398 28.4314C75.4193 27.5966 74.9299 26.4739 74.9299 25.0634C74.9299 23.5666 75.4768 22.3576 76.5707 21.4652C77.6646 20.5728 79.1039 20.1123 80.9174 20.1123C81.5507 20.1123 82.0976 20.1698 82.6158 20.3138C83.1052 20.4577 83.6521 20.688 84.3142 21.0046V19.8244C84.3142 19.076 84.0839 18.4715 83.5945 18.0397C83.1339 17.5791 82.4431 17.3488 81.4931 17.3488C80.4856 17.3488 79.5645 17.7518 78.7872 18.529L74.9875 17.8382C76.1389 15.5065 78.5282 14.3551 82.1264 14.3551C84.602 14.3551 86.358 14.8732 87.4231 15.8807C88.4882 16.8882 89.0063 18.4715 89.0063 20.6016ZM81.3492 26.7618C82.184 26.7618 83.1627 26.2437 84.3142 25.2361V23.912C83.3067 23.2499 82.3855 22.9333 81.5219 22.9333C80.8598 22.9333 80.3417 23.0772 79.9675 23.4226C79.622 23.7393 79.4493 24.1711 79.4493 24.7756C79.4493 26.0997 80.0826 26.7618 81.3492 26.7618Z" fill="#00A2FF"/>
<path d="M102.586 18.1547L105.062 24.7467L107.681 18.1547H105.752V14.7004H113.525V18.1547H111.394L104.342 36.1171H99.1892V32.7204H102.01L102.989 30.1008L97.6347 18.1547H95.4758V14.7004H104.342V18.1547H102.586Z" fill="#00A2FF"/>
<path d="M116.835 34.3824V32.3575C117.456 32.3035 117.942 32.1955 118.266 32.0065C118.59 31.8176 118.806 31.4936 118.968 31.0616C119.103 30.6026 119.184 29.9817 119.184 29.1448H116.835V24.3391H121.614V28.9018C121.614 30.8186 121.209 32.1955 120.399 33.0865C119.616 33.9504 118.428 34.3824 116.835 34.3824Z" fill="#00A2FF"/>
<path fill-rule="evenodd" clip-rule="evenodd" d="M131.645 2.5199V43.1533H162.428L131.645 2.5199Z" fill="#00A2FF"/>
</g>
<defs>
<clipPath id="clip0">
<rect width="163.694" height="44.8101" fill="white"/>
</clipPath>
</defs>
</svg>
