<svg width="27" height="25" viewBox="0 0 27 25" fill="none" xmlns="http://www.w3.org/2000/svg">
<path d="M24.75 8.0625L17.9062 7.07812L14.8125 0.84375C14.2969 -0.234375 12.7031 -0.28125 12.1406 0.84375L9.09375 7.07812L2.20312 8.0625C0.984375 8.25 0.515625 9.75 1.40625 10.6406L6.32812 15.4688L5.15625 22.2656C4.96875 23.4844 6.28125 24.4219 7.35938 23.8594L13.5 20.625L19.5938 23.8594C20.6719 24.4219 21.9844 23.4844 21.7969 22.2656L20.625 15.4688L25.5469 10.6406C26.4375 9.75 25.9688 8.25 24.75 8.0625ZM18.1875 14.6719L19.3125 21.1406L13.5 18.0938L7.64062 21.1406L8.76562 14.6719L4.03125 10.0781L10.5469 9.14062L13.5 3.23438L16.4062 9.14062L22.9219 10.0781L18.1875 14.6719Z" fill="#828282"/>
</svg>
