<svg width="24" height="19" viewBox="0 0 24 19" fill="none" xmlns="http://www.w3.org/2000/svg">
<path d="M23.3242 6.47266L20.125 0.847656C19.9141 0.496094 19.5625 0.25 19.1406 0.25H5.32422C4.9375 0.25 4.55078 0.496094 4.33984 0.847656L1.14062 6.47266C0.71875 7.21094 1.24609 8.125 2.125 8.125H3.25V17.0195C3.25 17.7227 3.74219 18.25 4.375 18.25H13.375C13.9727 18.25 14.5 17.7227 14.5 17.0195V8.125H19.5625V17.6875C19.5625 18.0039 19.8086 18.25 20.125 18.25H20.6875C20.9688 18.25 21.25 18.0039 21.25 17.6875V8.125H22.375C23.2188 8.125 23.7461 7.21094 23.3242 6.47266ZM12.8125 16.5625H4.9375V13.2227H12.8125V16.5625ZM12.8125 11.5352H4.9375V8.125H12.8125V11.5352ZM3.07422 6.4375L5.64062 1.9375H18.8242L21.3906 6.4375H3.07422Z" fill="#828282"/>
</svg>
