<svg width="16" height="17" viewBox="0 0 16 17" fill="none" xmlns="http://www.w3.org/2000/svg">
<path d="M15.5312 7.0625L8.9375 0.46875C8.6875 0.21875 8.21875 0 7.875 0H1.5C0.65625 0 0 0.6875 0 1.5V7.90625C0 8.25 0.1875 8.71875 0.4375 8.96875L7.03125 15.5625C7.625 16.1562 8.59375 16.1562 9.15625 15.5625L15.5312 9.1875C16.125 8.625 16.125 7.65625 15.5312 7.0625ZM8.09375 14.5L1.5 7.90625V1.5H7.875L14.5 8.125L8.09375 14.5ZM6 4.5C6 3.6875 5.3125 3 4.5 3C3.65625 3 3 3.6875 3 4.5C3 5.34375 3.65625 6 4.5 6C5.3125 6 6 5.34375 6 4.5Z" fill="white"/>
</svg>
